{
	"asset":{
		"generator":"Khronos glTF Blender I/O v4.2.69",
		"version":"2.0"
	},
	"scene":0,
	"scenes":[
		{
			"name":"Scene",
			"nodes":[
				0
			]
		}
	],
	"nodes":[
		{
			"mesh":0,
			"name":"Mesh_0.002",
			"rotation":[
				0,
				0.3572390675544739,
				0,
				0.9340130090713501
			],
			"scale":[
				4.2235002517700195,
				4.2235002517700195,
				4.2235002517700195
			]
		}
	],
	"materials":[
		{
			"doubleSided":true,
			"name":"Material_0",
			"normalTexture":{
				"index":0
			},
			"pbrMetallicRoughness":{
				"baseColorTexture":{
					"index":1
				},
				"metallicFactor":0
			}
		}
	],
	"meshes":[
		{
			"name":"Mesh_0.002",
			"primitives":[
				{
					"attributes":{
						"POSITION":0,
						"NORMAL":1,
						"TEXCOORD_0":2
					},
					"indices":3,
					"material":0
				}
			]
		}
	],
	"textures":[
		{
			"sampler":0,
			"source":0
		},
		{
			"sampler":0,
			"source":1
		}
	],
	"images":[
		{
			"mimeType":"image/jpeg",
			"name":"Image_0",
			"uri":"Image_0.jpg"
		},
		{
			"mimeType":"image/jpeg",
			"name":"Image_2",
			"uri":"Image_2.jpg"
		}
	],
	"accessors":[
		{
			"bufferView":0,
			"componentType":5126,
			"count":20368,
			"max":[
				0.553558349609375,
				1.4875571727752686,
				0.29184573888778687
			],
			"min":[
				-0.3812091648578644,
				0.012112969532608986,
				-0.2847648561000824
			],
			"type":"VEC3"
		},
		{
			"bufferView":1,
			"componentType":5126,
			"count":20368,
			"type":"VEC3"
		},
		{
			"bufferView":2,
			"componentType":5126,
			"count":20368,
			"type":"VEC2"
		},
		{
			"bufferView":3,
			"componentType":5123,
			"count":98202,
			"type":"SCALAR"
		}
	],
	"bufferViews":[
		{
			"buffer":0,
			"byteLength":244416,
			"byteOffset":0,
			"target":34962
		},
		{
			"buffer":0,
			"byteLength":244416,
			"byteOffset":244416,
			"target":34962
		},
		{
			"buffer":0,
			"byteLength":162944,
			"byteOffset":488832,
			"target":34962
		},
		{
			"buffer":0,
			"byteLength":196404,
			"byteOffset":651776,
			"target":34963
		}
	],
	"samplers":[
		{
			"magFilter":9729,
			"minFilter":9987
		}
	],
	"buffers":[
		{
			"byteLength":848180,
			"uri":"cedricModel.bin"
		}
	]
}
